
        <svg xmlns="http://www.w3.org/2000/svg" xmlns:xlink="http://www.w3.org/1999/xlink" version="1.1" width="3254.9186221321656" height="1631.4791816458592" viewBox="0 0 3254.9186221321656 1631.4791816458592">
			
			<g transform="scale(12.745931106608277) translate(10, 10)">
				<defs id="SvgjsDefs2665"/><g id="SvgjsG2666" featureKey="0LeO0L-0" transform="matrix(7.717446278642055,0,0,7.717446278642055,16.999606243728724,-46.350982673361116)" fill="#fff"><path d="M0.52734 6.006 l3.9746 0.0000095367 c1.7644 0 2.8874 0.44597 3.3691 1.3379 c0.27344 0.46875 0.41016 1.1067 0.41016 1.9141 l0 0.97656 c0 0.91797 -0.40039 1.6602 -1.2012 2.2266 c0.27344 0.045576 0.61849 0.25391 1.0352 0.625 l0.30273 0 c0.39714 0.40364 0.6543 0.79427 0.77148 1.1719 c0.032549 0.13021 0.048828 0.20182 0.048828 0.21483 l0.38086 0 l0 0.23438 l-1.2695 0 l0 -0.23438 l-2.6074 0 l0 -0.74219 l-2.5586 0 l0 4.0723 l1.6016 0 l0 -0.29297 l0.95703 0 l0 -2.8027 l2.6074 0 l0 2.4707 l0.29297 0 l0 1.5527 l-0.86914 0 l0 0.36133 l0.86914 0 l0 0.64453 l-3.3105 0 l0 0.26367 l-3.6133 0 l0 -0.26367 l-0.78125 0 l0 -2.1484 l1.0742 0 l0 -0.57617 l-1.0742 0 c-0.019531 -1.0938 -0.029297 -1.9075 -0.029297 -2.4414 l0 -1.0352 l-0.9082 0 l0 -0.26367 l0.9082 0 l0 -0.54688 l-0.42969 0 l0 -6.6699 c0.0065136 -0.032549 0.022793 -0.048828 0.048838 -0.048828 z M3.2324 8.369 l-0.0000095367 3.4668 l0.5957 0 c0.70313 0 1.1653 -0.11719 1.3867 -0.35156 c0.22136 -0.1888 0.33203 -0.69986 0.33203 -1.5332 l0 -0.048828 c0 -0.71614 -0.11067 -1.1458 -0.33203 -1.2891 c-0.14974 -0.16276 -0.6608 -0.24414 -1.5332 -0.24414 l-0.44922 0 z M0.93748 13.2715 l0 0.26367 l1.2891 0 l0 -0.26367 l-1.2891 0 z M0.41014 13.584 l0.47852 -0.0000095367 l0 0.097656 c0 0.032549 -0.016279 0.048828 -0.048828 0.048828 l-0.29297 0 l0 0.097656 l0.26367 0 c0.032549 0.0065136 0.048828 0.022793 0.048828 0.048838 l0 0.048828 c0 0.032549 -0.016279 0.048828 -0.048828 0.048828 l-0.26367 0 l0 0.11719 l0.3418 0 l0 0.097656 c0 0.026045 -0.016279 0.039063 -0.048828 0.039063 l-0.42969 0 l0 -0.64453 z M4.4238 14.4727 l1.3184 0 l0 0.23438 l-1.3184 0 l0 -0.23438 z M8.7305 14.7559 l0.078106 -0.0000095367 c0.032549 0.0065136 0.048828 0.022793 0.048828 0.048838 l0 0.41016 c-0.026045 0.14323 -0.097656 0.21484 -0.21484 0.21484 c-0.14974 -0.026045 -0.22461 -0.097656 -0.22461 -0.21484 l0 -0.029297 c0.0065136 -0.026045 0.022793 -0.039063 0.048838 -0.039063 l0.048828 0 c0.032549 0 0.058594 0.045576 0.078125 0.13672 l0.087891 0 l0 -0.47852 c0.0065136 -0.032549 0.022793 -0.048828 0.048838 -0.048828 z M8.5156 15.5957 l0.1953 -0.0000095367 c0.22136 0 0.33203 0.12044 0.33203 0.36133 c0 0.16276 -0.10417 0.25717 -0.3125 0.28321 l-0.26367 0 l0 -0.5957 c0.0065136 -0.032549 0.022793 -0.048828 0.048838 -0.048828 z M8.6426 15.7422 l0 0.36133 l0.087891 0 c0.097656 0 0.14648 -0.048828 0.14648 -0.14648 l0 -0.048828 c0 -0.11067 -0.055342 -0.16602 -0.16602 -0.16602 l-0.068359 0 z M8.5156 16.4355 l0.36132 -0.0000095367 c0.032549 0.0065136 0.048828 0.022793 0.048828 0.048838 l0 0.097656 l-0.2832 0 l0 0.11719 l0.23438 0 l0 0.11719 l-0.23438 0 l0 0.21484 c0 0.032549 -0.016279 0.048828 -0.048828 0.048828 l-0.12695 0 l0 -0.5957 c0.0065136 -0.032549 0.022793 -0.048828 0.048838 -0.048828 z M5.1659 16.8164 l0.50781 0 l0 0.11719 l-0.3125 0.39063 l0.33203 0 l0 0.087891 c0 0.032549 -0.016279 0.048828 -0.048828 0.048828 l-0.44922 0 c-0.032549 0 -0.048828 -0.016279 -0.048828 -0.048828 l0 -0.068359 l0.3125 -0.38086 l-0.24414 0 c-0.032549 0 -0.048828 -0.016279 -0.048828 -0.048828 l0 -0.097656 z M3.2519 17.2266 l0.029287 0.0000095367 c0.29948 0.091143 0.44922 0.15299 0.44922 0.18554 l0 0.048828 c-0.032549 0.045576 -0.18229 0.11719 -0.44921 0.21484 l-0.029297 -0.048828 l0 -0.019531 c0 -0.045576 0.097656 -0.094404 0.29297 -0.14648 c0 -0.032549 -0.097656 -0.078125 -0.29297 -0.13672 l0 -0.097656 z"/></g><g id="SvgjsG2667" featureKey="pulpyG-0" transform="matrix(6.420396421506993,0,0,6.420396421506993,95.1477658208761,-27.312180318288462)" fill="#fff"><path d="M0.6 5.5 l5.64 0 l0.5 2.7 l-3.16 0 l0 3.44 l2.4 0 l0 2.5 l-2.4 0 l0 3.16 l3.04 0 l-0.5 2.7 l-5.52 0 l0 -14.5 z M8.46 20 l-0.51996 -2.7 l3.12 0 c0.22666 0 0.34 -0.1 0.34 -0.3 l0 -2.64 c0 -0.2 -0.04 -0.32 -0.12 -0.36 s-0.22 -0.06 -0.42 -0.06 l-1.5 0 c-0.21334 0 -0.41668 -0.01666 -0.61002 -0.05 s-0.36668 -0.11 -0.52002 -0.23 s-0.27334 -0.28666 -0.36 -0.5 s-0.13 -0.5 -0.13 -0.86 l0 -4.92 c0 -0.57334 0.15666 -1.03 0.47 -1.37 s0.81 -0.51 1.49 -0.51 l4 0 l0.5 2.7 l-3.28 0 c-0.24 0 -0.36 0.10666 -0.36 0.32 l0 2.64 c0 0.14666 0.03666 0.24666 0.11 0.3 s0.18334 0.08 0.33 0.08 l1.82 0 c0.46666 0 0.82332 0.11 1.07 0.33 s0.37 0.60334 0.37 1.15 l0 4.78 c0 0.8 -0.16334 1.3667 -0.49 1.7 s-0.90332 0.5 -1.73 0.5 l-3.58 0 z M16.04 20 l-0.51996 -2.7 l3.12 0 c0.22666 0 0.34 -0.1 0.34 -0.3 l0 -2.64 c0 -0.2 -0.04 -0.32 -0.12 -0.36 s-0.22 -0.06 -0.42 -0.06 l-1.5 0 c-0.21334 0 -0.41668 -0.01666 -0.61002 -0.05 s-0.36668 -0.11 -0.52002 -0.23 s-0.27334 -0.28666 -0.36 -0.5 s-0.13 -0.5 -0.13 -0.86 l0 -4.92 c0 -0.57334 0.15666 -1.03 0.47 -1.37 s0.81 -0.51 1.49 -0.51 l4 0 l0.5 2.7 l-3.28 0 c-0.24 0 -0.36 0.10666 -0.36 0.32 l0 2.64 c0 0.14666 0.03666 0.24666 0.11 0.3 s0.18334 0.08 0.33 0.08 l1.82 0 c0.46666 0 0.82332 0.11 1.07 0.33 s0.37 0.60334 0.37 1.15 l0 4.78 c0 0.8 -0.16334 1.3667 -0.49 1.7 s-0.90332 0.5 -1.73 0.5 l-3.58 0 z"/></g>
			</g>
		</svg>
	