
        <svg xmlns="http://www.w3.org/2000/svg" xmlns:xlink="http://www.w3.org/1999/xlink" version="1.1" width="3200.6688963210704" height="1043.4782608695652" viewBox="0 0 3200.6688963210704 1043.4782608695652">
			
			<g transform="scale(10.033444816053512) translate(10, 10)">
				<defs id="SvgjsDefs15638"/><g id="SvgjsG15639" featureKey="symbolContainer" transform="matrix(1,0,0,1,6,0)" fill="#000">    <path xmlns="http://www.w3.org/2000/svg" fill-rule="nonzero" d="             M0,0             H79             V84             H0,0             z             M4,4             v76             h71             v-76             z     "/></g><g id="SvgjsG15640" featureKey="symbolFeature-0" transform="matrix(0.9,0,0,0.9,16.520000171661376,12.560001158714295)" fill="#000"><g xmlns="http://www.w3.org/2000/svg"><path stroke="#e5651e" stroke-width="2" stroke-linejoin="round" stroke-miterlimit="10" d="M43.6,27.5   c4.7-1.4,14.3-8.1,14.3-16.7c0-3.7-3-6.7-6.7-6.7c-0.6,0-1.1,0.1-1.6,0.2"/><path stroke="#e5651e" stroke-width="2" stroke-linejoin="round" stroke-miterlimit="10" d="M15.5,4.3   c-0.5-0.1-1.1-0.2-1.6-0.2c-3.7,0-6.7,3-6.7,6.7c0,8.7,9.6,15.4,14.3,16.7"/><path stroke="#e5651e" stroke-width="2" stroke-linejoin="round" stroke-miterlimit="10" d="M29,42.5   c1-0.2,2.2-0.4,3.5-0.4c1.2,0,2.4,0.1,3.5,0.4v-3.8H29V42.5z"/><polygon stroke="#e5651e" stroke-width="2" stroke-linejoin="round" stroke-miterlimit="10" points="19,59.8 19,63.5    46,63.5 46,59.8 44.3,59.8 20.7,59.8  "/><polygon stroke="#e5651e" stroke-width="2" stroke-linejoin="round" stroke-miterlimit="10" points="29,45.7    24.5,45.7 20.7,45.7 20.7,59.8 44.3,59.8 44.3,45.7 40.5,45.7 36,45.7  "/><rect x="24.7" y="49.7" stroke="#e5651e" stroke-width="2" stroke-linejoin="round" stroke-miterlimit="10" width="15.5" height="6.1"/><path stroke="#e5651e" stroke-width="2" stroke-linejoin="round" stroke-miterlimit="10" d="M29,34.4H36h1.2   c0,0,0,0,0,0.1c2.4-1.3,4.6-3.7,6.5-6.9c0.4-0.7,0.8-1.5,1.2-2.2c2.5-5.1,4.2-11.8,4.7-19.2c0-0.6,0.1-1.2,0.1-1.8   c0-0.7,0.1-1.4,0.1-2.1c0-0.4-0.3-0.7-0.7-0.7H16.1c-0.4,0-0.7,0.3-0.7,0.7c0,0.7,0,1.4,0.1,2.1c0,0.6,0.1,1.2,0.1,1.8   c0.5,7.4,2.2,14.1,4.7,19.2c0.4,0.8,0.8,1.5,1.2,2.2c1.9,3.1,4,5.5,6.5,6.9c0,0,0,0,0-0.1H29z"/><path stroke="#e5651e" stroke-width="2" stroke-linejoin="round" stroke-miterlimit="10" d="M36.3,29.3   c1.4-1,2.9-2.7,4.1-4.8c0.4-0.6,0.7-1.2,1-1.9c2.2-4.5,3.6-10.5,4.1-16.8c0-0.3,0-0.6,0.1-0.9"/><path stroke="#e5651e" stroke-width="2" stroke-linejoin="round" stroke-miterlimit="10" d="M29,34.4   c-0.5,0-0.9,1.8-0.9,2.3s0.4,2.1,0.9,2.1h0H36h0c0.5,0,0.8-1.6,0.8-2.1s-0.4-2.3-0.8-2.3h0H29L29,34.4z"/><path stroke="#e5651e" stroke-width="2" stroke-linejoin="round" stroke-miterlimit="10" d="M29,42.5   c-2.7,0.6-4.5,1.8-4.5,3.2H29H36h4.5c0-1.4-1.8-2.6-4.5-3.2c-1-0.2-2.2-0.4-3.5-0.4C31.3,42.2,30.1,42.3,29,42.5z"/></g></g><g id="SvgjsG15641" featureKey="nameFeature-0" transform="matrix(2.3629481253635993,0,0,2.3629481253635993,93.23440643890385,-18.992433885965468)" fill="#000"><path d="M2.44 11.52 c1.0667 -0.18668 2.1868 -0.31344 3.3601 -0.38012 s2.5466 -0.1 4.12 -0.1 c1.4933 0 2.8866 0.12 4.18 0.36 s2.42 0.65332 3.38 1.24 s1.7133 1.3734 2.26 2.36 s0.82 2.2267 0.82 3.72 c0 1.2267 -0.24668 2.36 -0.74 3.4 s-1.1133 1.8667 -1.86 2.48 c0.56 0.24 1.1067 0.55332 1.64 0.94 s1.0066 0.87336 1.42 1.46 s0.75332 1.2734 1.02 2.06 s0.4 1.6734 0.4 2.66 c0 1.76 -0.32 3.2067 -0.96 4.34 s-1.5133 2.02 -2.62 2.66 s-2.38 1.0867 -3.82 1.34 s-2.96 0.38 -4.56 0.38 c-1.12 0 -2.34 -0.03332 -3.66 -0.1 s-2.78 -0.19336 -4.38 -0.38004 l0 -28.44 z M9 34.88 c0.37332 0.05332 0.75332 0.08668 1.14 0.1 s0.72668 0.02 1.02 0.02 c0.48 0 1 -0.04668 1.56 -0.14 s1.0667 -0.27332 1.52 -0.54 s0.83332 -0.63336 1.14 -1.1 s0.46 -1.0867 0.46 -1.86 c0 -0.72 -0.12 -1.3067 -0.36 -1.76 s-0.57332 -0.80664 -1 -1.06 s-0.94 -0.43332 -1.54 -0.54 s-1.2733 -0.16 -2.02 -0.16 l-1.92 0 l0 7.04 z M10.28 22.72 c1.2 0.05332 2.1867 -0.16 2.96 -0.64 s1.16 -1.4 1.16 -2.76 c0 -0.66668 -0.12 -1.2067 -0.36 -1.62 s-0.55332 -0.74 -0.94 -0.98 s-0.81336 -0.4 -1.28 -0.48 s-0.92668 -0.12 -1.38 -0.12 l-0.72 0 l-0.72 0.08 l0 6.48 z M26.720000000000002 11.399999999999999 l16.84 0 c-0.26668 1.0133 -0.53336 1.9733 -0.80004 2.88 s-0.53336 1.84 -0.80004 2.8 l-8.8 0 c0 0.10668 0.01332 0.26 0.04 0.46 s0.04 0.35332 0.04 0.46 l0 4.2 l8.08 0 l0 5.72 l-8.08 0 l0 5.48 l-0.08 0.92 l10.56 0 l0 5.68 l-17 0 l0 -28.6 z M53.160000000000004 27.240000000000002 c-0.85332 -0.34668 -1.6466 -0.73332 -2.38 -1.16 s-1.3666 -0.94 -1.9 -1.54 s-0.94664 -1.3067 -1.24 -2.12 s-0.44 -1.78 -0.44 -2.9 c0 -1.3867 0.24 -2.6067 0.72 -3.66 s1.1533 -1.94 2.02 -2.66 s1.9134 -1.2667 3.14 -1.64 s2.5867 -0.56 4.08 -0.56 c1.2267 0 2.48 0.12668 3.76 0.38 s2.8133 0.68664 4.6 1.3 l-2.72 4.88 c-1.7333 -0.82668 -3.56 -1.24 -5.48 -1.24 c-0.37332 0 -0.76 0.04 -1.16 0.12 s-0.76 0.22 -1.08 0.42 s-0.58668 0.47332 -0.8 0.82 s-0.32 0.8 -0.32 1.36 c0 0.45332 0.08668 0.82664 0.26 1.12 s0.39332 0.54664 0.66 0.75996 s0.57336 0.39332 0.92004 0.54 s0.69336 0.28668 1.04 0.42 l2.36 0.92 c1.0133 0.4 1.94 0.82 2.78 1.26 s1.5533 0.97332 2.14 1.6 s1.04 1.3934 1.36 2.3 s0.48 2.04 0.48 3.4 s-0.24668 2.6 -0.74 3.72 s-1.2133 2.0733 -2.16 2.86 s-2.1134 1.4 -3.5 1.84 s-2.9734 0.66 -4.76 0.66 c-0.82668 0 -1.5867 -0.02668 -2.28 -0.08 s-1.3666 -0.14664 -2.02 -0.27996 s-1.3066 -0.29332 -1.96 -0.48 s-1.3533 -0.42668 -2.1 -0.72 l1.36 -5.6 c1.0933 0.29332 2.1666 0.55332 3.22 0.78 s2.1266 0.34 3.22 0.34 c1.4667 0 2.5867 -0.19332 3.36 -0.58 s1.2266 -1.1267 1.36 -2.22 c0.05332 -0.56 -0.013359 -1.0267 -0.20004 -1.4 s-0.45336 -0.68664 -0.80004 -0.93996 s-0.73336 -0.46 -1.16 -0.62 l-1.28 -0.48 z M74.28 27.240000000000002 c-0.85332 -0.34668 -1.6466 -0.73332 -2.38 -1.16 s-1.3666 -0.94 -1.9 -1.54 s-0.94664 -1.3067 -1.24 -2.12 s-0.44 -1.78 -0.44 -2.9 c0 -1.3867 0.24 -2.6067 0.72 -3.66 s1.1533 -1.94 2.02 -2.66 s1.9134 -1.2667 3.14 -1.64 s2.5867 -0.56 4.08 -0.56 c1.2267 0 2.48 0.12668 3.76 0.38 s2.8133 0.68664 4.6 1.3 l-2.72 4.88 c-1.7333 -0.82668 -3.56 -1.24 -5.48 -1.24 c-0.37332 0 -0.76 0.04 -1.16 0.12 s-0.76 0.22 -1.08 0.42 s-0.58668 0.47332 -0.8 0.82 s-0.32 0.8 -0.32 1.36 c0 0.45332 0.08668 0.82664 0.26 1.12 s0.39332 0.54664 0.66 0.75996 s0.57336 0.39332 0.92004 0.54 s0.69336 0.28668 1.04 0.42 l2.36 0.92 c1.0133 0.4 1.94 0.82 2.78 1.26 s1.5533 0.97332 2.14 1.6 s1.04 1.3934 1.36 2.3 s0.48 2.04 0.48 3.4 s-0.24668 2.6 -0.74 3.72 s-1.2133 2.0733 -2.16 2.86 s-2.1134 1.4 -3.5 1.84 s-2.9734 0.66 -4.76 0.66 c-0.82668 0 -1.5867 -0.02668 -2.28 -0.08 s-1.3666 -0.14664 -2.02 -0.27996 s-1.3066 -0.29332 -1.96 -0.48 s-1.3533 -0.42668 -2.1 -0.72 l1.36 -5.6 c1.0933 0.29332 2.1666 0.55332 3.22 0.78 s2.1266 0.34 3.22 0.34 c1.4667 0 2.5867 -0.19332 3.36 -0.58 s1.2266 -1.1267 1.36 -2.22 c0.05332 -0.56 -0.013359 -1.0267 -0.20004 -1.4 s-0.45336 -0.68664 -0.80004 -0.93996 s-0.73336 -0.46 -1.16 -0.62 l-1.28 -0.48 z"/></g>
			</g>
		</svg>
	